<?xml version="1.0" encoding="UTF-8"?>
<svg width="auto" height="auto" viewBox="0 0 69 84" version="1.1" xmlns="http://www.w3.org/2000/svg" xmlns:xlink="http://www.w3.org/1999/xlink">
    <title>3D9D8D09-3571-4CC2-AB9C-3E93F790BB65</title>
    <g id="OpenCrypto-Kurzy-Copy" stroke="none" stroke-width="1" fill="none" fill-rule="evenodd">
        <g id="Gwei-HP" transform="translate(-310.000000, -990.000000)" fill-rule="nonzero">
            <g id="Group-15" transform="translate(310.000000, 990.000000)">
                <path d="M1.40816327,70 C0.630857143,70 0,69.3742 0,68.6 L0,12.6 C0,5.6518 5.6847551,0 12.6734694,0 L67.5918367,0 C68.3691429,0 69,0.6258 69,1.4 L69,57.4 C69,58.1742 68.3691429,58.8 67.5918367,58.8 L12.6734694,58.8 C7.23795918,58.8 2.81632653,63.1974 2.81632653,68.6 C2.81632653,69.3742 2.18546939,70 1.40816327,70 Z M12.6734694,2.8 C7.23795918,2.8 2.81632653,7.1974 2.81632653,12.6 L2.81632653,60.6886 C5.14120408,57.8312 8.69681633,56 12.6734694,56 L66.1836735,56 L66.1836735,2.8 L12.6734694,2.8 Z" id="Shape" fill="#1A1B27"></path>
                <path d="M22.5555556,70 L12.4444444,70 C11.6471111,70 11,69.3295 11,68.5 C11,67.6705 11.6471111,67 12.4444444,67 L22.5555556,67 C23.3528889,67 24,67.6705 24,68.5 C24,69.3295 23.3528889,70 22.5555556,70 Z" id="Path" fill="#1A1B27"></path>
                <path d="M39.625,70 L31.375,70 C30.616,70 30,69.3295 30,68.5 C30,67.6705 30.616,67 31.375,67 L39.625,67 C40.384,67 41,67.6705 41,68.5 C41,69.3295 40.384,70 39.625,70 Z" id="Path" fill="#1A1B27"></path>
                <path d="M67.5714286,70 L60.4285714,70 C59.64,70 59,69.3295 59,68.5 C59,67.6705 59.64,67 60.4285714,67 L67.5714286,67 C68.36,67 69,67.6705 69,68.5 C69,69.3295 68.36,70 67.5714286,70 Z" id="Path" fill="#1A1B27"></path>
                <path d="M1.44444444,70 C0.647111111,70 0,69.3733135 0,68.5980168 L0,12.5186883 C0,6.18312611 4.88944444,0.806520492 11.375,0.0101940269 C11.7852222,-0.0374734023 12.1997778,0.083097154 12.5103333,0.349473965 C12.8223333,0.615850775 13,0.998592192 13,1.40096137 L13,57.4802899 C13,58.1868894 12.4583333,58.7827323 11.7361111,58.8710573 C6.69211111,59.4907338 2.88888889,63.6714478 2.88888889,68.5980168 C2.88888889,69.3733135 2.24177778,70 1.44444444,70 Z M10.1111111,3.12540073 C5.89766667,4.34652811 2.88888889,8.13749071 2.88888889,12.5186883 L2.88888889,60.6866255 C4.68433333,58.5317773 7.202,56.9503403 10.1111111,56.305428 L10.1111111,3.12540073 Z" id="Shape" fill="#1A1B27"></path>
                <path d="M1.44444444,32 C0.647111111,32 0,31.3880387 0,30.6309591 L0,22.2250482 C0,16.0369835 4.88944444,10.7867118 11.375,10.0090966 C11.7852222,9.96528728 12.1997778,10.0802867 12.5103333,10.3417735 C12.8223333,10.6005222 13,10.9756394 13,11.3685542 L13,19.7758341 C13,20.4658307 12.4583333,21.0476731 11.7361111,21.1339227 C6.69211111,21.7376697 2.88888889,25.8201495 2.88888889,30.6309591 C2.88888889,31.3880387 2.24177778,32 1.44444444,32 Z M10.1111111,13.0511054 C5.89766667,14.24354 2.88888889,17.9467955 2.88888889,22.2250482 L2.88888889,22.9054615 C4.68433333,20.8012457 7.202,19.2569676 10.1111111,18.6272088 L10.1111111,13.0511054 Z" id="Shape" fill="#1A1B27"></path>
                <path d="M1.44444444,55 C0.647111111,55 0,54.3880126 0,53.6309006 L0,45.2246304 C0,39.0376702 4.88944444,33.7871741 11.375,33.0095256 C11.7866667,32.9643453 12.1997778,33.0807188 12.5117778,33.3408477 C12.8223333,33.5996074 13,33.9747407 13,34.3676722 L13,42.7739425 C13,43.4639685 12.4583333,44.0458358 11.7361111,44.132089 C6.69211111,44.7358619 2.88888889,48.8212545 2.88888889,53.6309006 C2.88888889,54.3880126 2.24177778,55 1.44444444,55 Z M10.1111111,36.0502953 C5.89766667,37.2427809 2.88888889,40.9448257 2.88888889,45.2232613 L2.88888889,45.9050728 C4.68433333,43.7993979 7.202,42.2550538 10.1111111,41.6252681 L10.1111111,36.0502953 Z" id="Shape" fill="#1A1B27"></path>
                <path d="M31.625,83.9997319 C31.2675,83.9997319 30.9155,83.8552342 30.652875,83.5846551 L27.5,80.3362897 L24.347125,83.5846551 C23.953875,83.9898154 23.36125,84.1116468 22.848375,83.8920669 C22.3355,83.6739037 22,83.1554119 22,82.5830876 L22,68.4166443 C22,67.63324 22.616,67 23.375,67 L31.625,67 C32.384,67 33,67.63324 33,68.4166443 L33,82.5830876 C33,83.1554119 32.6645,83.6739037 32.151625,83.8920669 C31.981125,83.9657324 31.802375,83.9997319 31.625,83.9997319 Z M27.5,76.9165103 C27.852,76.9165103 28.204,77.0553414 28.472125,77.3315871 L30.25,79.1633082 L30.25,69.8332886 L24.75,69.8332886 L24.75,79.1633082 L26.527875,77.3315871 C26.796,77.0553414 27.148,76.9165103 27.5,76.9165103 Z" id="Shape" fill="#1A1B27"></path>
                <path d="M67.6,76 L31.2,76 C30.4272,76 29.8,75.3742 29.8,74.6 L29.8,70.4 L24.2,70.4 L24.2,74.6 C24.2,75.3742 23.5728,76 22.8,76 L13,76 C9.1402,76 6,72.8598 6,69 C6,65.1402 9.1402,62 13,62 L67.6,62 C68.3728,62 69,62.6258 69,63.4 L69,74.6 C69,75.3742 68.3728,76 67.6,76 Z M32.6,73.2 L66.2,73.2 L66.2,64.8 L13,64.8 C10.6844,64.8 8.8,66.6844 8.8,69 C8.8,71.3156 10.6844,73.2 13,73.2 L21.4,73.2 L21.4,69 C21.4,68.2258 22.0272,67.6 22.8,67.6 L31.2,67.6 C31.9728,67.6 32.6,68.2258 32.6,69 L32.6,73.2 Z" id="Shape" fill="#1A1B27"></path>
                <path d="M67.5918367,81 L30.9795918,81 C30.2022857,81 29.5714286,80.3791667 29.5714286,79.6111111 L29.5714286,69.8888889 L23.9387755,69.8888889 L23.9387755,79.6111111 C23.9387755,80.3791667 23.3079184,81 22.5306122,81 L12.6734694,81 C5.6847551,81 0,75.3930556 0,68.5 C0,61.6069444 5.6847551,56 12.6734694,56 L67.5918367,56 C68.3691429,56 69,56.6208333 69,57.3888889 L69,79.6111111 C69,80.3791667 68.3691429,81 67.5918367,81 Z M32.3877551,78.2222222 L66.1836735,78.2222222 L66.1836735,58.7777778 L12.6734694,58.7777778 C7.23795918,58.7777778 2.81632653,63.1402778 2.81632653,68.5 C2.81632653,73.8597222 7.23795918,78.2222222 12.6734694,78.2222222 L21.122449,78.2222222 L21.122449,68.5 C21.122449,67.7319444 21.7533061,67.1111111 22.5306122,67.1111111 L30.9795918,67.1111111 C31.756898,67.1111111 32.3877551,67.7319444 32.3877551,68.5 L32.3877551,78.2222222 Z" id="Shape" fill="#1A1B27"></path>
                <path d="M58.6666667,59 L53.3333333,59 C52.5973333,59 52,58.3720714 52,57.5952381 L52,1.4047619 C52,0.627928571 52.5973333,0 53.3333333,0 L58.6666667,0 C59.4026667,0 60,0.627928571 60,1.4047619 L60,57.5952381 C60,58.3720714 59.4026667,59 58.6666667,59 Z M54.6666667,56.1904762 L57.3333333,56.1904762 L57.3333333,2.80952381 L54.6666667,2.80952381 L54.6666667,56.1904762 Z" id="Shape" fill="#1A1B27"></path>
                <path d="M37.625,28 L18.375,28 C17.616,28 17,27.3295 17,26.5 C17,25.6705 17.616,25 18.375,25 L37.625,25 C38.384,25 39,25.6705 39,26.5 C39,27.3295 38.384,28 37.625,28 Z" id="Path" fill="#B15355"></path>
                <path d="M46.5,28 L43.5,28 C42.672,28 42,27.3295 42,26.5 C42,25.6705 42.672,25 43.5,25 L46.5,25 C47.328,25 48,25.6705 48,26.5 C48,27.3295 47.328,28 46.5,28 Z" id="Path" fill="#B15355"></path>
                <path d="M45.625,34 L26.375,34 C25.616,34 25,33.3295 25,32.5 C25,31.6705 25.616,31 26.375,31 L45.625,31 C46.384,31 47,31.6705 47,32.5 C47,33.3295 46.384,34 45.625,34 Z" id="Path" fill="#B15355"></path>
                <path d="M21.5,34 L18.5,34 C17.672,34 17,33.3295 17,32.5 C17,31.6705 17.672,31 18.5,31 L21.5,31 C22.328,31 23,31.6705 23,32.5 C23,33.3295 22.328,34 21.5,34 Z" id="Path" fill="#B15355"></path>
                <path d="M53.59375,41 L11.40625,41 C10.63,41 10,40.385375 10,39.625 L10,20.375 C10,19.614625 10.63,19 11.40625,19 L53.59375,19 C54.37,19 55,19.614625 55,20.375 L55,39.625 C55,40.385375 54.37,41 53.59375,41 Z M12.8125,38.25 L52.1875,38.25 L52.1875,21.75 L12.8125,21.75 L12.8125,38.25 Z" id="Shape" fill="#1A1B27"></path>
                <path d="M67.625,41 L59.375,41 C58.616,41 58,40.385375 58,39.625 L58,20.375 C58,19.614625 58.616,19 59.375,19 L67.625,19 C68.384,19 69,19.614625 69,20.375 L69,39.625 C69,40.385375 68.384,41 67.625,41 Z M60.75,38.25 L66.25,38.25 L66.25,21.75 L60.75,21.75 L60.75,38.25 Z" id="Shape" fill="#1A1B27"></path>
            </g>
        </g>
    </g>
</svg>