<?xml version="1.0" encoding="UTF-8"?>
<svg width="auto" height="auto" viewBox="0 0 88 69" version="1.1" xmlns="http://www.w3.org/2000/svg" xmlns:xlink="http://www.w3.org/1999/xlink">
    <title>76B317C4-6072-46AA-8D5D-F475D5266BC3</title>
    <g id="OpenCrypto-Kurzy-Copy" stroke="none" stroke-width="1" fill="none" fill-rule="evenodd">
        <g id="Gwei-HP" transform="translate(-560.000000, -1476.000000)" fill-rule="nonzero">
            <g id="Group-10" transform="translate(560.000000, 1476.000000)">
                <path d="M44.1832077,0.00336615984 C47.2681905,-0.0877923411 52.4400734,1.64421918 52.8030125,8.66342375 C52.8937473,9.39269176 53.3474212,15.2268358 50.2624385,18.7820174 C50.0809689,19.0554929 49.7180297,19.3289684 49.4458254,19.6024439 C50.1717037,20.5140289 52.167869,21.9725649 56.8860779,23.1576254 C59.6988563,23.7957349 61.2413477,26.5304899 60.9691434,30.359147 C60.9691434,31.270732 60.2432651,31.9088415 59.3359172,31.9088415 L59.3359172,31.9088415 L59.2451824,31.9088415 C58.3378345,31.817683 57.6119562,30.9972565 57.702691,30.0856715 C57.7934258,28.900611 57.702691,26.7128069 56.1601996,26.3481729 C49.9902341,24.7984784 47.5403948,22.7018329 46.5423122,21.0609799 C45.9071687,21.2432969 45.2720252,21.3344554 44.5461469,21.3344554 L44.5461469,21.3344554 L44.2739425,21.3344554 C43.638799,21.3344554 43.0036555,21.2432969 42.4592468,21.1521384 C41.4611641,22.7929914 38.9205901,24.8896369 32.8413593,26.4393314 C31.2988679,26.8039654 31.2081331,28.900611 31.2988679,30.17683 C31.3896027,31.1795735 30.6637244,31.9088415 29.7563765,32 L29.7563765,32 L29.6656417,32 C28.8490287,32 28.1231504,31.3618905 28.0324156,30.4503055 C27.7602112,26.7128069 29.2119678,23.9780519 32.0247462,23.2487839 C36.4707508,22.0637234 38.5576509,20.6963459 39.374264,19.7847609 C39.0113248,19.5112854 38.6483857,19.2378099 38.3761813,18.8731759 C35.2911986,15.3179943 35.7448725,9.48385026 35.8356073,8.75458225 C36.1985464,1.73537768 41.3704293,0.00336615984 44.1832077,0.00336615984 Z M49.5365602,8.93689925 C49.3550906,3.5585477 45.5442295,3.28507219 44.3646773,3.3762307 L44.3646773,3.3762307 L44.0084569,3.3769184 C42.5983976,3.39989544 39.3688199,4.02345605 39.1020596,8.93689925 L39.1020596,8.93689925 L39.1020596,9.02805776 C39.0113248,10.4865938 39.0113248,14.5887263 40.644551,16.6853718 C41.5518989,17.6881153 42.6407163,18.1439079 44.1832077,18.1439079 C44.2739425,18.1439079 44.2739425,18.1439079 44.2739425,18.1439079 L44.5589064,18.1375428 C45.9624602,18.0741146 47.0470244,17.5399828 47.8125992,16.6853718 C49.627295,14.4975678 49.7180297,10.3954353 49.5365602,9.02805776 L49.5365602,9.02805776 Z" id="Combined-Shape" fill="#212231"></path>
                <path d="M44.5,32 C45.3966444,32 46.1139599,32.7154472 46.1139599,33.6097561 L46.1139599,33.6097561 L46.1139599,40.9430894 C48.2659064,41.6585366 49.8798663,43.7154472 49.8798663,46.1300813 C49.8798663,46.4878049 49.8798663,46.9349593 49.7902019,47.2926829 L49.7902019,47.2926829 L56.156377,50.9593496 C56.9633569,51.4065041 57.2323502,52.3902439 56.784028,53.195122 C56.4253703,53.7317073 55.8873837,54 55.349397,54 C55.0804037,54 54.8114104,54 54.5424171,53.8211382 L54.5424171,53.8211382 L48.176242,50.1544715 C47.1899331,51.0487805 45.934631,51.5853659 44.5,51.5853659 C43.065369,51.5853659 41.8100669,51.0487805 40.823758,50.1544715 L40.823758,50.1544715 L34.4575829,53.8211382 C34.1885896,53.9105691 33.9195963,54 33.650603,54 C33.1126163,54 32.4849653,53.7317073 32.215972,53.195122 C31.7676498,52.3902439 32.0366431,51.4065041 32.843623,50.9593496 L32.843623,50.9593496 L39.2097981,47.2926829 C39.2097981,46.9349593 39.1201337,46.4878049 39.1201337,46.1300813 C39.1201337,43.7154472 40.7340936,41.6585366 42.8860401,40.9430894 L42.8860401,40.9430894 L42.8860401,33.6097561 C42.8860401,32.7154472 43.6033556,32 44.5,32 Z M44.5,43.9837398 C43.3343623,43.9837398 42.3480535,44.9674797 42.3480535,46.1300813 C42.3480535,47.2926829 43.3343623,48.2764228 44.5,48.2764228 C45.6656377,48.2764228 46.6519465,47.2926829 46.6519465,46.1300813 C46.6519465,44.9674797 45.6656377,43.9837398 44.5,43.9837398 Z" id="Combined-Shape" fill="#C05355"></path>
                <path d="M71.0272514,37.0003436 L71.1832077,37.0033662 C74.2681905,36.9122077 79.4400734,38.6442192 79.8030125,45.6634238 C79.8937473,46.3926918 80.3474212,52.2268358 77.2624385,55.7820174 C77.0809689,56.0554929 76.7180297,56.3289684 76.4458254,56.6024439 C77.1717037,57.5140289 79.167869,58.9725649 83.8860779,60.1576254 C86.6988563,60.7957349 88.2413477,63.5304899 87.9691434,67.359147 C87.9691434,68.270732 87.2432651,68.9088415 86.3359172,68.9088415 L86.3359172,68.9088415 L86.2451824,68.9088415 C85.3378345,68.817683 84.6119562,67.9972565 84.702691,67.0856715 C84.7934258,65.900611 84.702691,63.7128069 83.1601996,63.3481729 C76.9902341,61.7984784 74.5403948,59.7018329 73.5423122,58.0609799 C72.9071687,58.2432969 72.2720252,58.3344554 71.5461469,58.3344554 L71.5461469,58.3344554 L71.2739425,58.3344554 C70.638799,58.3344554 70.0036555,58.2432969 69.4592468,58.1521384 C68.4611641,59.7929914 65.9205901,61.8896369 59.8413593,63.4393314 C58.2988679,63.8039654 58.2081331,65.900611 58.2988679,67.17683 C58.3896027,68.1795735 57.6637244,68.9088415 56.7563765,69 L56.7563765,69 L56.6656417,69 C55.8490287,69 55.1231504,68.3618905 55.0324156,67.4503055 C54.7602112,63.7128069 56.2119678,60.9780519 59.0247462,60.2487839 C63.5614856,59.0637234 65.5576509,57.6963459 66.1020596,56.6936024 C65.7391205,56.4201269 65.3761813,56.1466514 65.103977,55.7820174 C62.0189942,52.2268358 62.4726681,46.3926918 62.5634029,45.6634238 C62.9263421,38.6442192 68.0982249,36.9122077 71.1832077,37.0033662 Z M76.5365602,45.9368993 C76.3550906,40.5585477 72.5442295,40.2850722 71.3646773,40.3762307 L71.3646773,40.3762307 L71.0084569,40.3769184 C69.5983976,40.3998954 66.3688199,41.0234561 66.1020596,45.9368993 L66.1020596,45.9368993 L66.1020596,46.0280578 C66.0113248,47.3954353 66.0113248,51.4975678 67.644551,53.6853718 C68.5518989,54.6881153 69.6407163,55.1439079 71.1832077,55.1439079 C71.2739425,55.1439079 71.2739425,55.1439079 71.2739425,55.1439079 L71.5589064,55.1375428 C72.9624602,55.0741146 74.0470244,54.5399828 74.8125992,53.6853718 C76.627295,51.4975678 76.7180297,47.3954353 76.5365602,46.0280578 L76.5365602,46.0280578 Z" id="Combined-Shape" fill="#212231"></path>
                <path d="M16.2994558,37.0003446 L16.4554121,37.0033758 C19.5403948,36.9119569 24.7122777,38.6489165 25.0752169,45.6881738 C25.1659517,46.4195252 25.6196256,52.2703365 22.5346428,55.8356746 C22.2624385,56.1099314 21.8994993,56.4756071 21.5365602,56.7498639 C22.3531733,57.6640531 24.4400734,59.126756 28.8860779,60.2237831 C31.6988563,60.8637156 33.2413477,63.6062833 32.9691434,67.4458783 C32.9691434,68.3600675 32.2432651,69 31.3359172,69 L31.3359172,69 L31.2451824,69 C30.3378345,68.9085811 29.6119562,68.0858107 29.702691,67.1716215 C29.7934258,65.9831754 29.702691,63.7891212 28.1601996,63.4234455 C22.0809689,61.8693237 19.5403948,59.7666884 18.5423122,58.1211478 C17.9071687,58.2125667 17.36276,58.3039856 16.7276164,58.3039856 L16.7276164,58.3039856 L16.4554121,58.3039856 C15.7295338,58.3039856 15.0943903,58.2125667 14.4592468,58.0297288 C13.4611641,59.5838506 11.0113248,61.7779048 4.8413593,63.3320266 C3.29886792,63.6977023 3.20813313,65.8003376 3.29886792,67.0802025 C3.38960271,68.0858107 2.66372441,68.8171621 1.75637654,68.9085811 L1.75637654,68.9085811 L1.66564175,68.9085811 C0.849028663,68.9085811 0.123150364,68.2686486 0.0324155767,67.3544593 C-0.239788785,63.6062833 1.21196781,60.8637156 4.02474622,60.1323641 C8.74295516,58.9439181 10.8298553,57.4812153 11.1927944,56.6584449 C10.9205901,56.3841882 10.6483857,56.1099314 10.3761813,55.8356746 C7.29119856,52.2703365 7.7448725,46.4195252 7.83560729,45.6881738 C8.19854643,38.6489165 13.3704293,36.9119569 16.4554121,37.0033758 Z M21.8087645,45.7795927 C21.627295,40.3858761 17.8164339,40.1116193 16.6368817,40.2030382 L16.6368817,40.2030382 L16.2806612,40.2037279 C14.870602,40.2267706 11.6410243,40.8521126 11.374264,45.7795927 L11.374264,45.7795927 L11.374264,45.8710116 C11.2835292,47.2422955 11.2835292,51.3561472 12.9167554,53.4587825 C13.8241032,54.4643907 14.9129207,54.9214853 16.4554121,54.9214853 L16.4554121,54.9214853 L16.5461469,54.9214853 C18.0886383,54.9214853 19.2681905,54.4643907 20.0848036,53.4587825 C21.8994993,51.3561472 21.9902341,47.2422955 21.8087645,45.8710116 L21.8087645,45.8710116 Z" id="Combined-Shape" fill="#212231"></path>
            </g>
        </g>
    </g>
</svg>