<?xml version="1.0" encoding="UTF-8"?>
<svg width="160px" height="160px" viewBox="0 0 160 160" version="1.1" xmlns="http://www.w3.org/2000/svg" xmlns:xlink="http://www.w3.org/1999/xlink">
    <title>127BD811-3D7D-4E06-A008-95246139703A</title>
    <g id="OpenCrypto-Kurzy-Copy" stroke="none" stroke-width="1" fill="none" fill-rule="evenodd">
        <g id="Gwei-HP" transform="translate(-314.000000, -1855.000000)" fill-rule="nonzero">
            <g id="Group-4" transform="translate(314.000000, 1855.000000)">
                <path d="M86.3199958,74.1813333 C88.5303891,71.3552124 88.5632207,67.3957198 86.3999957,64.5333333 C84.8891621,62.5188866 82.518058,61.3333333 80.000002,61.3333333 C77.4819461,61.3333333 75.1108419,62.5188866 73.6000084,64.5333333 C72.5549625,65.9147042 71.992795,67.6012085 72.0000099,69.3333333 C71.9999001,70.0885826 72.1067384,70.8400423 72.317343,71.5653333 C72.5998767,72.5165897 73.0594823,73.4059457 73.6720083,74.1866667 C70.9346136,76.2739104 69.3296717,79.5202958 69.3333396,82.9626667 L69.3333396,87.704 C69.3342608,88.6994091 69.8895022,89.6114454 70.7733445,90.0693333 L71.618677,90.5093333 L71.618677,96 C71.618677,97.4727593 72.8125831,98.6666667 74.285341,98.6666667 L85.714663,98.6666667 C87.1874209,98.6666667 88.3813271,97.4727593 88.3813271,96 L88.3813271,90.5093333 L89.2266596,90.0693333 C90.1105019,89.6114454 90.6657432,88.6994091 90.6666624,87.704 L90.6666624,82.9626667 C90.6696845,79.5171234 89.0615672,76.2683286 86.3199958,74.1813333 Z M77.4426712,70.088 C77.3700444,69.8430288 77.333219,69.5888437 77.333338,69.3333333 C77.3294041,68.7557146 77.5169527,68.193068 77.8666708,67.7333333 C78.370282,67.0618511 79.16065,66.6666667 80.000002,66.6666667 C80.839354,66.6666667 81.6297221,67.0618511 82.1333333,67.7333333 C82.4837748,68.1926854 82.6714083,68.7555865 82.6666661,69.3333333 C82.6661284,70.6583984 81.6927247,71.7820663 80.3812746,71.9715205 C79.0698244,72.1609747 77.818202,71.3587377 77.4426712,70.088 L77.4426712,70.088 Z M85.3333301,86.088 L84.4879976,86.528 C83.6033046,86.9863292 83.0479182,87.8996321 83.047999,88.896 L83.047999,93.3333333 L76.952005,93.3333333 L76.952005,88.888 C76.9520858,87.8916321 76.3966995,86.9783292 75.5120065,86.52 L74.666674,86.08 L74.666674,82.9626667 C74.666674,80.017148 77.0544863,77.6293333 80.000002,77.6293333 C82.9455178,77.6293333 85.3333301,80.017148 85.3333301,82.9626667 L85.3333301,86.088 Z" id="Shape" fill="#17172C"></path>
                <path d="M146.599069,26.720334 C152.725457,26.7385707 158.079154,22.5875534 159.587489,16.6496942 C161.095824,10.711835 158.37221,4.50900374 152.979825,1.60121918 C147.587439,-1.30656538 140.908346,-0.17403971 136.775908,4.34880065 C132.643471,8.87164101 132.116829,15.6255947 135.498241,20.7343347 L104.508096,51.7618973 L102.611339,49.8677961 C101.571053,48.8278201 99.8847489,48.8278201 98.8444629,49.8677961 L94.2810556,54.4258934 C92.2946034,53.3076952 90.1835508,52.4269689 87.9913856,51.8018572 L87.9913856,45.3683067 C87.9913856,43.8970222 86.7986786,42.7043106 85.3274,42.7043106 L82.6634144,42.7043106 L82.6634144,15.5741743 C86.3331789,14.2767115 88.5344979,10.5241268 87.8762899,6.68779441 C87.2180819,2.85146199 83.8918019,0.0472671489 79.9994288,0.0472671489 C76.1070557,0.0472671489 72.7807757,2.85146199 72.1225677,6.68779441 C71.4643597,10.5241268 73.6656787,14.2767115 77.3354432,15.5741743 L77.3354432,42.7043106 L74.6714576,42.7043106 C73.200179,42.7043106 72.007472,43.8970222 72.007472,45.3683067 L72.007472,51.8018572 C69.8157777,52.423582 67.7047427,53.3007245 65.717802,54.4152374 L61.1623866,49.8624681 C60.1221006,48.8224921 58.435797,48.8224921 57.395511,49.8624681 L55.5120731,51.7459133 L24.5006168,20.7343347 C28.2869569,15.0137288 27.125266,7.35512693 21.8128199,3.01467632 C16.5003739,-1.3257743 8.76394793,-0.937239159 3.91310028,3.9136276 C-0.937747363,8.76449437 -1.32628097,16.5009508 3.01415254,21.8134178 C7.35458605,27.1258848 15.0131577,28.2875802 20.7337411,24.5012252 L51.7451975,55.5128038 L49.8617597,57.396249 C48.8217878,58.4365391 48.8217878,60.1228494 49.8617597,61.1631395 L54.4145111,65.7185729 C53.3000026,67.7055214 52.4228635,69.8165647 51.8011412,72.0082677 L45.367616,72.0082677 C43.8963374,72.0082677 42.7036304,73.2009793 42.7036304,74.6722638 L42.7036304,77.3362598 L15.573601,77.3362598 C14.2761433,73.6664809 10.5235735,71.4651532 6.68725616,72.1233638 C2.85093886,72.7815744 0.0467550662,76.1078675 0.0467550662,80.0002559 C0.0467550662,83.8926444 2.85093886,87.2189375 6.68725616,87.8771481 C10.5235735,88.5353587 14.2761433,86.334031 15.573601,82.664252 L42.7036304,82.664252 L42.7036304,85.3282481 C42.7036304,86.7995326 43.8963374,87.9922442 45.367616,87.9922442 L51.8011412,87.9922442 C52.4228635,90.1839472 53.3000026,92.2949905 54.4145111,94.281939 L49.8617597,98.8373724 C48.8217878,99.8776625 48.8217878,101.563973 49.8617597,102.604263 L51.7558535,104.501028 L20.7337411,135.499287 C15.0131577,131.712932 7.35458605,132.874627 3.01415254,138.187094 C-1.32628097,143.499561 -0.937747363,151.236018 3.91310028,156.086884 C8.76394793,160.937751 16.5003739,161.326286 21.8128199,156.985836 C27.125266,152.645385 28.2869569,144.986783 24.5006168,139.266177 L55.5227291,108.267919 L57.387519,110.132716 C58.427805,111.172692 60.1141087,111.172692 61.1543947,110.132716 L65.70981,105.579946 C67.6990336,106.696878 69.8127915,107.575825 72.007472,108.198655 L72.007472,114.632205 C72.007472,116.10349 73.200179,117.296201 74.6714576,117.296201 L77.3354432,117.296201 L77.3354432,144.426338 C73.6656787,145.7238 71.4643597,149.476385 72.1225677,153.312717 C72.7807757,157.14905 76.1070557,159.953245 79.9994288,159.953245 C83.8918019,159.953245 87.2180819,157.14905 87.8762899,153.312717 C88.5344979,149.476385 86.3331789,145.7238 82.6634144,144.426338 L82.6634144,117.296201 L85.3274,117.296201 C86.7986786,117.296201 87.9913856,116.10349 87.9913856,114.632205 L87.9913856,108.198655 C90.1830799,107.57693 92.2941149,106.699787 94.2810556,105.585274 L98.836471,110.138044 C99.876757,111.17802 101.563061,111.17802 102.603347,110.138044 L104.486784,108.254599 L135.498241,139.266177 C131.711901,144.986783 132.873592,152.645385 138.186038,156.985836 C143.498484,161.326286 151.23491,160.937751 156.085757,156.086884 C160.936605,151.236018 161.325139,143.499561 156.984705,138.187094 C152.644272,132.874627 144.9857,131.712932 139.265116,135.499287 L108.25366,104.487708 L110.137098,102.604263 C111.17707,101.563973 111.17707,99.8776625 110.137098,98.8373724 L105.573691,94.281939 C106.691884,92.295479 107.572607,90.1844181 108.197716,87.9922442 L114.631242,87.9922442 C116.10252,87.9922442 117.295227,86.7995326 117.295227,85.3282481 L117.295227,82.664252 L144.425257,82.664252 C145.722714,86.334031 149.475284,88.5353587 153.311601,87.8771481 C157.147919,87.2189375 159.952103,83.8926444 159.952103,80.0002559 C159.952103,76.1078675 157.147919,72.7815744 153.311601,72.1233638 C149.475284,71.4651532 145.722714,73.6664809 144.425257,77.3362598 L117.295227,77.3362598 L117.295227,74.6722638 C117.295227,73.2009793 116.10252,72.0082677 114.631242,72.0082677 L108.197716,72.0082677 C107.575994,69.8165647 106.698855,67.7055214 105.584347,65.7185729 L110.137098,61.1631395 C111.17707,60.1228494 111.17707,58.4365391 110.137098,57.396249 L108.272308,55.5314518 L139.265116,24.5012252 C141.437544,25.9477605 143.989109,26.7198135 146.599069,26.720334 Z M79.9994288,5.40836516 C81.4707074,5.40836516 82.6634144,6.60107684 82.6634144,8.07236126 C82.6634144,9.54364568 81.4707074,10.7363574 79.9994288,10.7363574 C78.5281502,10.7363574 77.3354432,9.54364568 77.3354432,8.07236126 C77.3354432,6.60107684 78.5281502,5.40836516 79.9994288,5.40836516 Z M13.3997888,21.3923418 C8.98595289,21.3923418 5.40783195,17.8142067 5.40783195,13.4003535 C5.40783195,8.9865002 8.98595289,5.40836516 13.3997888,5.40836516 C17.8136246,5.40836516 21.3917456,8.9865002 21.3917456,13.4003535 C21.3917456,15.5199605 20.5497382,17.552754 19.0509556,19.0515426 C17.552173,20.5503311 15.5193875,21.3923418 13.3997888,21.3923418 Z M8.07181755,82.664252 C6.60053893,82.664252 5.40783195,81.4715404 5.40783195,80.0002559 C5.40783195,78.5289715 6.60053893,77.3362598 8.07181755,77.3362598 C9.54309617,77.3362598 10.7358032,78.5289715 10.7358032,80.0002559 C10.7358032,81.4715404 9.54309617,82.664252 8.07181755,82.664252 Z M13.3997888,154.592147 C8.98595289,154.592147 5.40783195,151.014012 5.40783195,146.600158 C5.40783195,142.186305 8.98595289,138.60817 13.3997888,138.60817 C17.8136246,138.60817 21.3917456,142.186305 21.3917456,146.600158 C21.3917456,151.014012 17.8136246,154.592147 13.3997888,154.592147 Z M79.9994288,154.592147 C78.5281502,154.592147 77.3354432,153.399435 77.3354432,151.928151 C77.3354432,150.456866 78.5281502,149.264155 79.9994288,149.264155 C81.4707074,149.264155 82.6634144,150.456866 82.6634144,151.928151 C82.6634144,153.399435 81.4707074,154.592147 79.9994288,154.592147 Z M146.599069,138.60817 C151.012905,138.60817 154.591026,142.186305 154.591026,146.600158 C154.591026,151.014012 151.012905,154.592147 146.599069,154.592147 C142.185233,154.592147 138.607112,151.014012 138.607112,146.600158 C138.607112,142.186305 142.185233,138.60817 146.599069,138.60817 Z M151.92704,77.3362598 C153.398319,77.3362598 154.591026,78.5289715 154.591026,80.0002559 C154.591026,81.4715404 153.398319,82.664252 151.92704,82.664252 C150.455761,82.664252 149.263054,81.4715404 149.263054,80.0002559 C149.263054,78.5289715 150.455761,77.3362598 151.92704,77.3362598 Z M106.106488,77.3362598 L111.967256,77.3362598 L111.967256,82.664252 L106.106488,82.664252 C104.839378,82.6627265 103.746539,83.5539344 103.493118,84.7954489 C102.884365,87.7985139 101.69825,90.6547914 100.000633,93.2056846 C99.2996304,94.2619121 99.4400207,95.6658205 100.336295,96.5623197 L104.489448,100.71549 L100.722573,104.48238 L96.5694192,100.32921 C95.6729236,99.4329325 94.2690207,99.2925417 93.2127974,99.9935467 C90.6599149,101.693998 87.8008227,102.881974 84.7946029,103.491374 C83.5530933,103.744796 82.6618889,104.837639 82.6634144,106.104754 L82.6634144,111.968209 L77.3354432,111.968209 L77.3354432,106.107418 C77.3369687,104.840303 76.4457643,103.74746 75.2042547,103.494038 C72.2012016,102.885282 69.3449353,101.699162 66.7940522,100.001539 C65.7378289,99.3005336 64.333926,99.4409245 63.4374303,100.337202 L59.2842768,104.490372 L55.5174011,100.723482 L59.6705547,96.5703117 C60.5668288,95.6738125 60.7072191,94.2699041 60.0062169,93.2136766 C58.3057718,90.6607841 57.1178009,87.8016806 56.5084038,84.7954489 C56.2547843,83.5529517 55.1604796,82.6614576 53.8923699,82.664252 L48.0316016,82.664252 L48.0316016,77.3362598 L53.8923699,77.3362598 C55.1594793,77.3377854 56.2523186,76.4465775 56.5057398,75.205063 C57.1144929,72.201998 58.3006079,69.3457205 59.9982249,66.7948273 C60.6992272,65.7385998 60.5588369,64.3346914 59.6625627,63.4381922 L55.5094092,59.2850223 L59.2762848,55.5181318 L63.4294384,59.6713017 C64.325934,60.5675794 65.7298369,60.7079702 66.7860602,60.0069652 C69.3389427,58.3065134 72.1980349,57.1185378 75.2042547,56.5091383 C76.446747,56.2555179 77.3382376,55.1612088 77.3354432,53.8930942 L77.3354432,48.0323028 L82.6634144,48.0323028 L82.6634144,53.8930942 C82.6618889,55.1602085 83.5530933,56.2530522 84.7946029,56.5064743 C87.797656,57.1152299 90.6539223,58.3013496 93.2048054,59.9989732 C94.2610287,60.6999783 95.6649316,60.5595874 96.5614273,59.6633097 L100.714581,55.5101398 L104.481456,59.2770303 L100.328303,63.4302002 C99.4320288,64.3266994 99.2916385,65.7306078 99.9926407,66.7868353 C101.693086,69.3397278 102.881057,72.1988313 103.490454,75.205063 C103.744073,76.4475602 104.838378,77.3390543 106.106488,77.3362598 Z M146.599069,5.40836516 C151.012905,5.40836516 154.591026,8.9865002 154.591026,13.4003535 C154.591026,17.8142067 151.012905,21.3923418 146.599069,21.3923418 C142.185233,21.3923418 138.607112,17.8142067 138.607112,13.4003535 C138.607112,8.9865002 142.185233,5.40836516 146.599069,5.40836516 Z" id="Shape" fill="#B15355"></path>
            </g>
        </g>
    </g>
</svg>