<svg width="auto" height="auto" viewBox="0 0 48 45" fill="none" xmlns="http://www.w3.org/2000/svg">
<path d="M36.1748 26.5893C37.4206 26.5732 38.4173 25.5784 38.4012 24.3672V2.22164C38.4173 1.01037 37.4206 0.015608 36.1748 -0.000499725H2.22686C0.981021 0.0156309 -0.0156029 1.0104 0.00056006 2.22164V24.3672C-0.0156029 25.5784 0.981011 26.5732 2.22684 26.5893H8.02093L9.24077 37.3338L21.3768 26.5893H36.1748Z" fill="#2A7BBF"/>
<path d="M46.2054 13.8706H39.882V25.0312C39.8955 27.3625 38.0196 29.2649 35.6884 29.2839H21.7615L17.065 33.5605V34.0609C17.052 35.0645 17.8548 35.8888 18.8584 35.9021H30.7791L40.5553 44.8047L41.538 35.9022H46.2054C47.209 35.8888 48.0118 35.0645 47.9988 34.0609V15.7118C48.0118 14.7082 47.209 13.884 46.2054 13.8706Z" fill="#C05355"/>
</svg>
