<?xml version="1.0" encoding="UTF-8"?>
<svg width="auto" height="auto" viewBox="0 0 164 275" version="1.1" xmlns="http://www.w3.org/2000/svg" xmlns:xlink="http://www.w3.org/1999/xlink">
    <title>0F33494D-EC26-4465-B1B5-5AD35F81F9CD</title>
    <g id="OpenCrypto-Kurzy-Copy" stroke="none" stroke-width="1" fill="none" fill-rule="evenodd">
        <g id="Gwei-HP" transform="translate(-81.000000, -174.000000)">
            <g id="Group-39" transform="translate(81.000000, 174.000000)">
                <path d="M72.7813545,263.517368 L72.7813545,216.648691 L127.927028,187.031678 L72.7813545,263.517368 Z M67.2188625,216.648691 L67.2188625,263.517368 L12.0731885,187.031678 L67.2188625,216.648691 Z M139.344828,176.994441 C138.516027,175.990404 137.124898,175.711156 135.992135,176.319854 L70.0001085,211.762375 L4.00706858,176.319854 C2.8743061,175.711156 1.48418971,175.990404 0.653362128,176.994441 C-0.173412634,177.999525 -0.221033239,179.4627 0.541909648,180.521123 L67.479256,273.35798 C67.7903098,274.051394 68.3627702,274.605706 69.0973434,274.856715 C69.3820538,274.953982 69.6718303,275 69.9595803,275 C69.9737652,275 69.9859236,274.995817 70.0001085,274.995817 C70.0142933,274.995817 70.0264518,275 70.0406367,275 C70.3263603,275 70.6171499,274.953982 70.9028736,274.856715 C71.6364335,274.605706 72.2099072,274.051394 72.5209609,273.35798 L139.458307,180.521123 C140.22125,179.4627 140.17363,177.999525 139.344828,176.994441 L139.344828,176.994441 Z" id="Fill-76-Copy" fill="#BE2026"></path>
                <path d="M72.8283838,82.1803196 L130.010401,109.100815 L72.8283838,138.789027 L72.8283838,82.1803196 Z M9.21941009,108.700821 L67.1706108,81.3269321 L67.1706108,138.789027 L9.21941009,108.700821 Z M67.1706108,75.2988126 L9.74325934,102.425854 L67.1706108,12.0735815 L67.1706108,75.2988126 Z M130.952525,103.520044 L72.8283838,76.1552226 L72.8283838,12.0735815 L130.952525,103.520044 Z M139.57442,106.932586 L72.4030705,1.25258802 C71.8741939,0.42035891 70.9491626,-0.036057295 70,0.00222927407 C69.049832,-0.036057295 68.1248007,0.42035891 67.5959241,1.25258802 L0.425579828,106.932586 C0.0153485508,107.57842 -0.104302238,108.367325 0.0927696496,109.106861 C0.291852475,109.845388 0.790565008,110.466034 1.46925646,110.818673 L68.6396007,145.693707 C69.032739,145.897231 69.4620742,146 69.8914094,146 C69.9276062,146 69.9627977,145.993955 70,145.99194 C70.0361969,145.993955 70.0723938,146 70.1075852,146 C70.5379258,146 70.9662555,145.897231 71.3593938,145.693707 L138.530744,110.818673 C139.209435,110.466034 139.708148,109.845388 139.90723,109.106861 C140.104302,108.367325 139.984651,107.57842 139.57442,106.932586 L139.57442,106.932586 Z" id="Fill-78-Copy" fill="#2A7BBF"></path>
                <path d="M24.4126703,177 C24.0162008,177 23.6197312,176.910123 23.2551025,176.72937 L1.48830698,165.942124 C0.635794701,165.519701 0.0975821288,164.668865 0.0955278823,163.739137 L0,123.612018 C-0.00102170124,123.037803 0.143802674,122.4556 0.502268681,121.998225 C1.29418069,120.986609 2.65101048,120.739946 3.72127288,121.276213 L25.6955472,132.309123 C26.4977305,132.711573 27.002048,133.517471 27,134.39527 L26.9917768,138.194074 C26.9917768,138.361845 26.8089488,138.468699 26.6559075,138.391804 L5.44683991,127.726391 C5.29379855,127.649496 5.11097061,127.757349 5.11097061,127.925119 L5.19108622,162.076411 C5.19108622,162.160296 5.24038814,162.237191 5.31742238,162.275139 L21.5274812,170.309151 C21.6815497,170.384049 21.8633505,170.276196 21.8633505,170.109424 L21.8633505,155.655193 C21.8633505,155.570309 21.8130214,155.492416 21.7349601,155.454468 L14.3930832,151.944268 C14.3139947,151.90632 14.2636657,151.828427 14.2646928,151.742544 L14.2718827,150.023895 C14.2790726,148.284274 16.166925,147.158813 17.7641017,147.941743 L25.5383974,151.747537 C26.410425,152.164967 26.9630173,153.026788 26.9630173,153.971496 L26.9630173,174.383578 C26.9630173,174.966781 26.8151116,175.558971 26.4474015,176.02034 C25.9297313,176.669452 25.1717144,177 24.4126703,177" id="Fill-80-Copy" fill="#FEFEFE"></path>
                <path d="M61.1037296,151.703468 L61.1037296,192.372763 L57.5848434,190.512486 L57.6154082,190.448792 L53.2712746,188.150743 L53.2712746,170.935093 C53.2712746,170.049439 52.7901268,169.239612 52.024037,168.830149 L48.3750042,166.886968 L48.3750042,185.559499 L41.8962704,182.130118 L41.8962704,143.048125 C41.8962704,142.162471 41.4151226,141.352644 40.6490327,140.943181 L37,139 L37,183.659792 C37,184.599029 37.5117125,185.460419 38.3251283,185.890102 L49.2347601,191.663027 C49.3767382,191.787382 49.5305477,191.901628 49.7011186,191.991609 L62.4298439,198.720958 C62.7828171,198.907997 63.167341,199 63.5508789,199 C64.2972495,199 65.0396763,198.65322 65.5405433,197.95966 C65.858022,197.520878 66,196.970883 66,196.424932 L66,155.752603 C66,154.867961 65.5188522,154.056112 64.7527624,153.648671 L61.1037296,151.703468 Z" id="Fill-82-Copy" fill="#FEFEFE"></path>
                <path d="M80.0055991,192.442379 L80.0055991,178.79825 L94.7774094,171.227842 L94.7663195,169.497206 C94.7542213,167.747574 92.8830447,166.62681 91.3163376,167.429641 L80.0055991,173.223422 L80.0055991,157.394752 L101.995957,146.099128 L102,144.354495 C102.005031,142.593865 100.123772,141.456105 98.5469835,142.265934 L76.3580145,153.673535 C75.5242521,154.098445 75,154.951266 75,155.88107 L75,196.460534 C75,196.998421 75.1451775,197.539307 75.4677942,197.970217 C75.9799481,198.654073 76.7401136,199 77.5033036,199 C77.8964927,199 78.2906899,198.908019 78.6516173,198.722058 L101.995957,186.677592 L101.984867,184.947956 C101.973777,183.194325 100.09756,182.072561 98.5278281,182.881391 L80.0055991,192.442379 Z" id="Fill-84-Copy" fill="#FEFEFE"></path>
                <path d="M130.573508,164.594313 L123.336385,168.422819 L123.336385,133.68683 L133.992059,128.088261 L133.984118,126.325159 C133.975185,124.579956 132.126944,123.461237 130.581449,124.265721 L107,136.541802 L107.004963,138.325786 C107.009926,140.068005 108.849233,141.190702 110.396713,140.395169 L118.407081,136.276292 L118.407081,171.036148 L107.011911,176.914148 L107.014889,178.668301 C107.01886,180.419469 108.876034,181.543161 110.423514,180.730722 L134,168.35321 L133.989081,166.642812 C133.979155,164.892638 132.119003,163.776902 130.573508,164.594313" id="Fill-86-Copy" fill="#FEFEFE"></path>
                <path d="M146.981593,150.727076 L146.993048,148.086092 C146.99534,147.738166 146.794866,147.423812 146.460362,147.242727 C146.124712,147.061643 145.718037,147.052487 145.372077,147.214242 L137.266076,150.99565 L137.266076,137.108105 L146.967846,132.654242 L147,129.99393 C147.004504,129.646003 146.807467,129.329614 146.472963,129.146495 C146.29311,129.047814 146.094927,129 145.893308,129 C145.719183,129 145.546203,129.036624 145.384678,129.109871 L134.153582,134.271794 C133.442187,134.598356 133,135.242325 133,135.954455 L133,154.110709 C133,154.767903 133.392928,155.388473 134.024133,155.729278 C134.650756,156.066014 135.460669,156.09043 136.115931,155.792352 L146.981593,150.727076 Z" id="Fill-88-Copy" fill="#BE2026"></path>
                <path d="M151.028783,150 C151.355013,150 151.681243,149.926186 151.971225,149.787657 L164,143.969462 L163.971441,141.330343 C163.967047,140.98655 163.773726,140.676124 163.451889,140.500183 C163.133348,140.325253 162.742311,140.316153 162.411688,140.476927 L155.182999,144.013953 L163.824253,125.613935 C164.229569,124.754452 163.893453,123.766552 163.025703,123.26704 C162.421573,122.91718 161.60435,122.912124 160.900265,123.245806 L149.008792,128.921428 L149,131.546391 C148.998906,131.891195 149.188933,132.203643 149.508572,132.383629 C149.827113,132.561592 150.214855,132.575748 150.549872,132.418008 L157.793939,128.96693 L149.201015,147.262799 C148.879179,147.949374 148.951674,148.708753 149.391042,149.244666 C149.783177,149.724965 150.380716,150 151.028783,150" id="Fill-90-Copy" fill="#2A7BBF"></path>
            </g>
        </g>
    </g>
</svg>