<?xml version="1.0" encoding="UTF-8"?>
<svg width="80px" height="80px" viewBox="0 0 80 80" version="1.1" xmlns="http://www.w3.org/2000/svg" xmlns:xlink="http://www.w3.org/1999/xlink">
    <title>8D568A51-F85F-449C-BA41-2BD1D6429BEB</title>
    <g id="OpenCrypto-Kurzy-Copy" stroke="none" stroke-width="1" fill="none" fill-rule="evenodd">
        <g id="Gwei-HP" transform="translate(-341.000000, -1470.000000)" fill-rule="nonzero">
            <g id="Group-8" transform="translate(341.000000, 1470.000000)">
                <path d="M17,36.1111111 C18.37875,36.1111111 19.5,37.2572778 19.5,38.6666667 C19.5,39.3732778 20.06,39.9444444 20.75,39.9444444 C21.44,39.9444444 22,39.3732778 22,38.6666667 C22,36.2912778 20.4,34.3081667 18.25,33.737 L18.25,32.2777778 C18.25,31.5711667 17.69,31 17,31 C16.31,31 15.75,31.5711667 15.75,32.2777778 L15.75,33.737 C13.6,34.3081667 12,36.2912778 12,38.6666667 C12,41.4854444 14.2425,43.7777778 17,43.7777778 C18.37875,43.7777778 19.5,44.9239444 19.5,46.3333333 C19.5,47.7427222 18.37875,48.8888889 17,48.8888889 C15.62125,48.8888889 14.5,47.7427222 14.5,46.3333333 C14.5,45.6267222 13.94,45.0555556 13.25,45.0555556 C12.56,45.0555556 12,45.6267222 12,46.3333333 C12,48.7087222 13.6,50.6918333 15.75,51.263 L15.75,52.7222222 C15.75,53.4288333 16.31,54 17,54 C17.69,54 18.25,53.4288333 18.25,52.7222222 L18.25,51.263 C20.4,50.6918333 22,48.7087222 22,46.3333333 C22,43.5145556 19.7575,41.2222222 17,41.2222222 C15.62125,41.2222222 14.5,40.0760556 14.5,38.6666667 C14.5,37.2572778 15.62125,36.1111111 17,36.1111111 Z" id="Path" fill="#C05355"></path>
                <path d="M62.8,36.5714286 C64.2339,36.5714286 65.4,37.7247143 65.4,39.1428571 C65.4,39.8538571 65.9824,40.4285714 66.7,40.4285714 C67.4176,40.4285714 68,39.8538571 68,39.1428571 C68,36.3065714 65.6678,34 62.8,34 C59.9322,34 57.6,36.3065714 57.6,39.1428571 L56.3,39.1428571 C55.5824,39.1428571 55,39.7175714 55,40.4285714 C55,41.1395714 55.5824,41.7142857 56.3,41.7142857 L57.6,41.7142857 L57.6,44.2857143 L56.3,44.2857143 C55.5824,44.2857143 55,44.8604286 55,45.5714286 C55,46.2824286 55.5824,46.8571429 56.3,46.8571429 L57.6,46.8571429 C57.6,49.6934286 59.9322,52 62.8,52 C65.6678,52 68,49.6934286 68,46.8571429 C68,46.1461429 67.4176,45.5714286 66.7,45.5714286 C65.9824,45.5714286 65.4,46.1461429 65.4,46.8571429 C65.4,48.2752857 64.2339,49.4285714 62.8,49.4285714 C61.3661,49.4285714 60.2,48.2752857 60.2,46.8571429 L61.5,46.8571429 C62.2176,46.8571429 62.8,46.2824286 62.8,45.5714286 C62.8,44.8604286 62.2176,44.2857143 61.5,44.2857143 L60.2,44.2857143 L60.2,41.7142857 L61.5,41.7142857 C62.2176,41.7142857 62.8,41.1395714 62.8,40.4285714 C62.8,39.7175714 62.2176,39.1428571 61.5,39.1428571 L60.2,39.1428571 C60.2,37.7247143 61.3661,36.5714286 62.8,36.5714286 Z" id="Path" fill="#C05355"></path>
                <path d="M70.8051715,27.636129 L66.2271121,11.6129032 L78.7096789,11.6129032 C79.1070978,11.6129032 79.4825812,11.4296774 79.7264519,11.116129 C79.9703226,10.803871 80.0580645,10.3948387 79.9612904,10.0103226 L78.6709692,4.84903226 C78.5277436,4.27354839 78.0116151,3.87096774 77.4193577,3.87096774 L46.6942306,3.87096774 C45.353587,1.56129032 42.8581059,0 40.0000446,0 C37.1419832,0 34.6465021,1.56129032 33.3058585,3.87096774 L2.58073139,3.87096774 C1.98847398,3.87096774 1.47234553,4.27354839 1.32911988,4.84903226 L0.0387987355,10.0103226 C-0.0579753502,10.396129 0.0284761664,10.803871 0.273637184,11.116129 C0.51750788,11.4296774 0.892991333,11.6129032 1.29041024,11.6129032 L13.772977,11.6129032 L9.19491757,27.636129 C3.74847202,30.4103226 0,36.0606452 0,42.5806452 C0,51.8296774 7.52524201,59.3548387 16.774264,59.3548387 C20.2671633,59.3548387 23.6258692,58.2787097 26.4852209,56.2425806 C27.0658654,55.8296774 27.2013491,55.0245161 26.787156,54.4425806 C26.3742533,53.8606452 25.5678026,53.7277419 24.987158,54.1406452 C22.5678059,55.8632258 19.7278091,56.7741935 16.774264,56.7741935 C8.94846623,56.7741935 2.58073139,50.4064516 2.58073139,42.5806452 C2.58073139,34.7548387 8.94846623,28.3870968 16.774264,28.3870968 C24.6000617,28.3870968 30.9677965,34.7548387 30.9677965,42.5806452 C30.9677965,45.5354839 30.0568298,48.3741935 28.3342511,50.7935484 C27.9213483,51.3741935 28.056832,52.1793548 28.6361862,52.5935484 C29.2155404,53.003871 30.0232815,52.8722581 30.4361842,52.2916129 C32.472311,49.4335484 33.5484388,46.0748387 33.5484388,42.5806452 C33.5484388,36.0606452 29.8000559,30.4103226 24.3536104,27.636129 L19.7755509,11.6129032 L33.3058585,11.6129032 C33.9845674,12.7832258 34.9600502,13.7574194 36.1290811,14.436129 L36.1290811,59.3548387 L32.2581177,59.3548387 C31.5458604,59.3548387 30.9677965,59.9316129 30.9677965,60.6451613 L30.9677965,69.6774194 L27.0968331,69.6774194 C26.6078014,69.6774194 26.1613503,69.9535484 25.9419957,70.3909677 L22.0710323,78.1329032 C21.8710325,78.5329032 21.8929679,79.0077419 22.1278064,79.3883871 C22.3626448,79.7690323 22.7781282,80 23.2258697,80 L56.7742194,80 C57.2219609,80 57.6361539,79.7677419 57.8722827,79.3870968 C58.1084115,79.0064516 58.1290566,78.5316129 57.9290568,78.1316129 L54.0580934,70.3896774 C53.8387388,69.9535484 53.3922877,69.6774194 52.903256,69.6774194 L49.0322926,69.6774194 L49.0322926,60.6451613 C49.0322926,59.9316129 48.4542287,59.3548387 47.7419714,59.3548387 L43.871008,59.3548387 L43.871008,14.436129 C45.0413293,13.7574194 46.0155217,12.7819355 46.6942306,11.6129032 L60.2245382,11.6129032 L55.6464787,27.636129 C50.2000332,30.4103226 46.4516503,36.0606452 46.4516503,42.5806452 C46.4516503,51.8296774 53.9768032,59.3548387 63.2258251,59.3548387 C66.7187245,59.3548387 70.0774304,58.2787097 72.9367821,56.2425806 C73.5174266,55.8296774 73.6529103,55.0245161 73.2387172,54.4425806 C72.8271048,53.8606452 72.0193637,53.7277419 71.4387192,54.1406452 C69.0193671,55.8632258 66.1793702,56.7741935 63.2258251,56.7741935 C55.4000274,56.7741935 49.0322926,50.4064516 49.0322926,42.5806452 C49.0322926,34.7548387 55.4000274,28.3870968 63.2258251,28.3870968 C71.0516229,28.3870968 77.4193577,34.7548387 77.4193577,42.5806452 C77.4193577,45.5354839 76.508391,48.3741935 74.7858123,50.7935484 C74.3729095,51.3741935 74.5083932,52.1793548 75.0877474,52.5935484 C75.6671016,53.003871 76.4735523,52.8722581 76.8877454,52.2916129 C78.9238722,49.4335484 80,46.0748387 80,42.5806452 C80,36.0606452 76.2516171,30.4103226 70.8051715,27.636129 Z M21.3316782,26.4516129 C19.880067,26.0412903 18.3549074,25.8064516 16.774264,25.8064516 C15.1936206,25.8064516 13.668461,26.0412903 12.2168497,26.4516129 L16.456845,11.6129032 L17.091683,11.6129032 L21.3316782,26.4516129 Z M2.94331163,9.03225806 L3.5884722,6.4516129 L32.3755369,6.4516129 C32.3032789,6.87225806 32.2581177,7.30193548 32.2581177,7.74193548 C32.2581177,8.18193548 32.3032789,8.6116129 32.3742466,9.03225806 L2.94331163,9.03225806 Z M40.0000446,2.58064516 C42.846493,2.58064516 45.1613291,4.89548387 45.1613291,7.74193548 C45.1613291,10.5883871 42.846493,12.9032258 40.0000446,12.9032258 C37.1535961,12.9032258 34.83876,10.5883871 34.83876,7.74193548 C34.83876,4.89548387 37.1535961,2.58064516 40.0000446,2.58064516 Z M54.6864798,77.4193548 L25.3136093,77.4193548 L27.8942516,72.2580645 L52.1058375,72.2580645 L54.6864798,77.4193548 Z M46.4516503,64.516129 L45.1613291,64.516129 C44.4490719,64.516129 43.871008,65.0929032 43.871008,65.8064516 C43.871008,66.52 44.4490719,67.0967742 45.1613291,67.0967742 L46.4516503,67.0967742 L46.4516503,69.6774194 L33.5484388,69.6774194 L33.5484388,67.0967742 L40.0000446,67.0967742 C40.7123018,67.0967742 41.2903657,66.52 41.2903657,65.8064516 C41.2903657,65.0929032 40.7123018,64.516129 40.0000446,64.516129 L33.5484388,64.516129 L33.5484388,61.9354839 L46.4516503,61.9354839 L46.4516503,64.516129 Z M41.2903657,15.483871 L41.2903657,59.3548387 L38.7097234,59.3548387 L38.7097234,15.483871 L41.2903657,15.483871 Z M47.6258425,6.4516129 L76.4129072,6.4516129 L77.0580678,9.03225806 L47.6258425,9.03225806 C47.6968102,8.6116129 47.7419714,8.18193548 47.7419714,7.74193548 C47.7419714,7.30193548 47.6968102,6.87225806 47.6258425,6.4516129 Z M58.6684109,26.4516129 L62.9084061,11.6129032 L63.5432441,11.6129032 L67.7832394,26.4516129 C66.3316281,26.0412903 64.8064685,25.8064516 63.2258251,25.8064516 C61.6451817,25.8064516 60.1200221,26.0412903 58.6684109,26.4516129 Z" id="Shape" fill="#1A1B27"></path>
            </g>
        </g>
    </g>
</svg>