<?xml version="1.0" encoding="UTF-8"?>
<svg width="24px" height="26px" viewBox="0 0 24 26" version="1.1" xmlns="http://www.w3.org/2000/svg" xmlns:xlink="http://www.w3.org/1999/xlink">
    <title>7A9C5A20-2CDA-44E0-95D7-2BCF61D30B2C</title>
    <g id="OpenCrypto-Kurzy-Copy" stroke="none" stroke-width="1" fill="none" fill-rule="evenodd">
        <g id="Gwei-HP" transform="translate(-763.000000, -445.000000)">
            <g id="Group-20" transform="translate(281.000000, 424.000000)">
                <g id="Group-16" transform="translate(482.000000, 15.000000)">
                    <g id="Group-14" transform="translate(0.000000, 6.000000)">
                        <path d="M21.4782609,0 L2.26086957,0 C1.01222578,0 6.32383035e-13,1.01222578 6.32383035e-13,2.26086957 L6.32383035e-13,23.7391304 C6.32383035e-13,24.9877742 1.01222578,26 2.26086957,26 L21.4782609,26 C22.7269047,26 23.7391304,24.9877742 23.7391304,23.7391304 L23.7391304,2.26086957 C23.7391304,1.01222578 22.7269047,0 21.4782609,0 Z" id="Shape" fill="#FFFFFF" fill-rule="nonzero"></path>
                        <g id="Group-13" transform="translate(3.391304, 3.391304)" fill="#999999">
                            <polygon id="Path" points="16.9565217 19.2173913 -1.10489395e-12 19.2173913 -1.10489395e-12 16.9565217 16.9565217 16.9565217"></polygon>
                            <polygon id="Path" points="16.9565217 13.5652174 -1.10489395e-12 13.5652174 -1.10489395e-12 11.3043478 16.9565217 11.3043478"></polygon>
                            <polygon id="Path" points="16.9565217 7.91304348 11.3043478 7.91304348 11.3043478 5.65217391 16.9565217 5.65217391"></polygon>
                            <polygon id="Path" points="16.9565217 2.26086957 11.3043478 2.26086957 11.3043478 -6.32605079e-13 16.9565217 -6.32605079e-13"></polygon>
                        </g>
                        <polygon id="Path" fill="#2A7BBF" points="3.39130435 3.39130435 11.3043478 3.39130435 11.3043478 11.3043478 3.39130435 11.3043478"></polygon>
                    </g>
                </g>
            </g>
        </g>
    </g>
</svg>