<?xml version="1.0" encoding="UTF-8"?>
<svg width="auto" height="auto" viewBox="0 0 83 83" version="1.1" xmlns="http://www.w3.org/2000/svg" xmlns:xlink="http://www.w3.org/1999/xlink">
    <title>3839C8B3-FFBD-4ACA-A630-DD6E09ECBFFE</title>
    <g id="OpenCrypto-Kurzy-Copy" stroke="none" stroke-width="1" fill="none" fill-rule="evenodd">
        <g id="Gwei-HP" transform="translate(-753.000000, -988.000000)" fill-rule="nonzero">
            <g id="Group-9" transform="translate(753.000000, 988.000000)">
                <g id="Group-3">
                    <g id="Group-2">
                        <path d="M48,31 L45.4,31 L45.4,15 L35,15 L35,23 L37.6,23 L37.6,31 L35,31 L35,39 L48,39 L48,31 Z M45.4,36.3333333 L37.6,36.3333333 L37.6,33.6666667 L40.2,33.6666667 L40.2,20.3333333 L37.6,20.3333333 L37.6,17.6666667 L42.8,17.6666667 L42.8,33.6666667 L45.4,33.6666667 L45.4,36.3333333 Z" id="Shape" fill="#B15355"></path>
                        <path d="M77.6451613,18.7419355 L77.6451613,16.0645161 L63.2500161,16.0645161 C60.3851774,6.77253226 51.7197097,0 41.5,0 C31.2802903,0 22.6148226,6.77253226 19.7499839,16.0645161 L5.35483871,16.0645161 L5.35483871,18.7419355 L0,18.7419355 L0,77.6451613 L34.9416613,77.6451613 C35.5628226,80.6960806 38.2683548,83 41.5,83 C44.7316452,83 47.4371774,80.6960806 48.0583387,77.6451613 L83,77.6451613 L83,18.7419355 L77.6451613,18.7419355 Z M41.5,2.67741935 C52.5724677,2.67741935 61.5806452,11.6855968 61.5806452,22.7580645 C61.5806452,32.2950323 54.8027581,40.5736129 45.4639194,42.4437903 L44.8226774,42.5723065 L41.5,49.2163226 L38.1786613,42.5723065 L37.5374194,42.4437903 C28.1972419,40.5736129 21.4193548,32.2950323 21.4193548,22.7580645 C21.4193548,11.6855968 30.4275323,2.67741935 41.5,2.67741935 Z M48.1935484,44.4987097 C49.5925,44.0689839 50.9325484,43.5147581 52.1949516,42.8387097 L69.6129032,42.8387097 L69.6129032,58.9032258 L48.1935484,58.9032258 L48.1935484,44.4987097 Z M8.03225806,18.7419355 L19.1181129,18.7419355 C18.8851774,20.0485161 18.7419355,21.3858871 18.7419355,22.7580645 C18.7419355,33.3445806 26.112871,42.5642742 36.363371,44.9297742 L41.5,55.2030323 L45.516129,47.1694355 L45.516129,61.5806452 L72.2903226,61.5806452 L72.2903226,40.1612903 L56.1200484,40.1612903 C61.1241452,35.9416774 64.2580645,29.6470645 64.2580645,22.7580645 C64.2580645,21.3858871 64.1148226,20.0485161 63.8818871,18.7419355 L74.9677419,18.7419355 L74.9677419,69.6129032 L42.8387097,69.6129032 L42.8387097,57.5645161 L40.1612903,57.5645161 L40.1612903,69.6129032 L8.03225806,69.6129032 L8.03225806,18.7419355 Z M80.3225806,74.9677419 L45.516129,74.9677419 L45.516129,76.3064516 C45.516129,78.5206774 43.7142258,80.3225806 41.5,80.3225806 C39.2857742,80.3225806 37.483871,78.5206774 37.483871,76.3064516 L37.483871,74.9677419 L2.67741935,74.9677419 L2.67741935,21.4193548 L5.35483871,21.4193548 L5.35483871,72.2903226 L77.6451613,72.2903226 L77.6451613,21.4193548 L80.3225806,21.4193548 L80.3225806,74.9677419 Z" id="Shape" fill="#212231"></path>
                    </g>
                    <rect id="Rectangle" fill="#212231" x="11" y="64" width="27" height="3"></rect>
                    <rect id="Rectangle" fill="#212231" x="45" y="64" width="27" height="3"></rect>
                </g>
                <path d="M41,14 C43.2053333,14 45,12.2053333 45,10 C45,7.79466667 43.2053333,6 41,6 C38.7946667,6 37,7.79466667 37,10 C37,12.2053333 38.7946667,14 41,14 Z M41,8.66666667 C41.7346667,8.66666667 42.3333333,9.264 42.3333333,10 C42.3333333,10.736 41.7346667,11.3333333 41,11.3333333 C40.2653333,11.3333333 39.6666667,10.736 39.6666667,10 C39.6666667,9.264 40.2653333,8.66666667 41,8.66666667 Z" id="Shape" fill="#B15355"></path>
                <rect id="Rectangle" fill="#212231" x="11" y="59" width="27" height="3"></rect>
                <rect id="Rectangle" fill="#212231" x="11" y="53" width="27" height="3"></rect>
                <rect id="Rectangle" fill="#212231" x="11" y="48" width="24" height="3"></rect>
            </g>
        </g>
    </g>
</svg>