<svg width="52" height="52" viewBox="0 0 52 52" fill="none" xmlns="http://www.w3.org/2000/svg">
<g id="Group 2195">
<g id="Group 3">
<g id="Group 2">
<path id="Shape" fill-rule="evenodd" clip-rule="evenodd" d="M28.4434 19.4217H30.0723V24.4337H21.9277V19.4217H23.5567V14.4096H21.9277V9.39758H28.4434V19.4217ZM23.5567 22.7631H28.4435V21.0924H26.8146V11.0683H23.5567V12.739H25.1856V21.0924H23.5567V22.7631Z" fill="#B15355"/>
<path id="Shape_2" fill-rule="evenodd" clip-rule="evenodd" d="M48.6452 11.7419V10.0645H39.6265C37.8317 4.24303 32.4027 0 26 0C19.5973 0 14.1683 4.24303 12.3735 10.0645H3.35484V11.7419H0V48.6452H21.8912C22.2803 50.5566 23.9754 52 26 52C28.0246 52 29.7197 50.5566 30.1088 48.6452H52V11.7419H48.6452ZM26.0001 1.6774C32.937 1.6774 38.5807 7.32107 38.5807 14.258C38.5807 20.233 34.3343 25.4196 28.4835 26.5913L28.0817 26.6718L26.0001 30.8343L23.9192 26.6718L23.5175 26.5913C17.6658 25.4196 13.4194 20.233 13.4194 14.258C13.4194 7.32107 19.0631 1.6774 26.0001 1.6774ZM32.7005 26.8387C31.9096 27.2622 31.0701 27.6095 30.1936 27.8787V36.9032H43.613V26.8387H32.7005ZM5.03219 11.742H11.9775C11.8316 12.5605 11.7419 13.3984 11.7419 14.2581C11.7419 20.8906 16.3598 26.6668 22.7818 28.1488L25.9999 34.5851L28.5161 29.552V38.5807H45.2903V25.1613H35.1595C38.2946 22.5177 40.258 18.5741 40.258 14.2581C40.258 13.3984 40.1683 12.5605 40.0223 11.742H46.9677V43.6129H26.8386V36.0645H25.1612V43.6129H5.03219V11.742ZM28.5161 46.9677H50.3226V13.4193H48.6451V45.2903H3.35482V13.4193H1.6774V46.9677H23.4838V47.8064C23.4838 49.1937 24.6128 50.3226 26 50.3226C27.3872 50.3226 28.5161 49.1937 28.5161 47.8064V46.9677Z" fill="#212231"/>
</g>
<rect id="Rectangle" x="6.89136" y="40.0964" width="16.9157" height="1.87952" fill="#212231"/>
<rect id="Rectangle_2" x="28.1929" y="40.0964" width="16.9157" height="1.87952" fill="#212231"/>
</g>
<path id="Shape_3" fill-rule="evenodd" clip-rule="evenodd" d="M28.1927 6.26506C28.1927 7.64671 27.0683 8.77108 25.6867 8.77108C24.305 8.77108 23.1807 7.64671 23.1807 6.26506C23.1807 4.8834 24.305 3.75903 25.6867 3.75903C27.0683 3.75903 28.1927 4.8834 28.1927 6.26506ZM26.5221 6.26507C26.5221 5.80396 26.147 5.42973 25.6868 5.42973C25.2265 5.42973 24.8514 5.80396 24.8514 6.26507C24.8514 6.72618 25.2265 7.10041 25.6868 7.10041C26.147 7.10041 26.5221 6.72618 26.5221 6.26507Z" fill="#B15355"/>
<rect id="Rectangle_3" x="6.89136" y="36.9639" width="16.9157" height="1.87952" fill="#212231"/>
<rect id="Rectangle_4" x="6.89136" y="33.2048" width="16.9157" height="1.87952" fill="#212231"/>
<rect id="Rectangle_5" x="6.89136" y="30.0723" width="15.0361" height="1.87952" fill="#212231"/>
</g>
</svg>
